<?xml version="1.0" encoding="utf-8"?>
<!-- Generator: Adobe Illustrator 25.4.1, SVG Export Plug-In . SVG Version: 6.00 Build 0)  -->
<svg version="1.1" id="katman_1" xmlns="http://www.w3.org/2000/svg" xmlns:xlink="http://www.w3.org/1999/xlink" x="0px" y="0px"
	 viewBox="0 0 750 175" style="enable-background:new 0 0 750 175;" xml:space="preserve">
<style type="text/css">
	.st0{fill:url(#SVGID_1_);}
	.st1{fill:url(#SVGID_00000106136685689798447550000010645795485528793232_);}
	.st2{fill:url(#SVGID_00000026143476346118940020000002822498193794558910_);}
	.st3{opacity:0.8;fill:url(#SVGID_00000135682859747341829080000006242032851233086613_);enable-background:new    ;}
	.st4{enable-background:new    ;}
	.st5{fill:#1F45A0;}
</style>
<g>
	<g>
		
			<linearGradient id="SVGID_1_" gradientUnits="userSpaceOnUse" x1="11.6119" y1="87.7681" x2="185.6079" y2="87.7681" gradientTransform="matrix(1 0 0 -1 0 175)">
			<stop  offset="0" style="stop-color:#203581"/>
			<stop  offset="1" style="stop-color:#1C68E3"/>
		</linearGradient>
		<path class="st0" d="M137.15,11.31H11.61l45.57,33.11v118.73l54.51-54.92h25.45c26.76,0,48.46-21.7,48.46-48.46
			C185.61,33.01,163.91,11.31,137.15,11.31z"/>
		
			<linearGradient id="SVGID_00000157300475145503110970000011997000413126069902_" gradientUnits="userSpaceOnUse" x1="11.5982" y1="121.4288" x2="141.1739" y2="121.4288" gradientTransform="matrix(1 0 0 -1 0 175)">
			<stop  offset="0" style="stop-color:#203581"/>
			<stop  offset="1" style="stop-color:#1C68E3"/>
		</linearGradient>
		<path style="fill:url(#SVGID_00000157300475145503110970000011997000413126069902_);" d="M57.19,95.98l83.99-84.5
			c0,0-131.12-0.57-129.56-0.17c1.55,0.4,45.57,33.11,45.57,33.11V95.98z"/>
		
			<linearGradient id="SVGID_00000082340480438729707680000003949025752309674404_" gradientUnits="userSpaceOnUse" x1="45.1455" y1="150.0976" x2="174.726" y2="185.8439" gradientTransform="matrix(1 0 0 -1 0 175)">
			<stop  offset="0" style="stop-color:#203581"/>
			<stop  offset="1" style="stop-color:#1C68E3"/>
		</linearGradient>
		<polygon style="fill:url(#SVGID_00000082340480438729707680000003949025752309674404_);" points="11.61,11.31 141.17,11.48 
			57.19,44.42 		"/>
		
			<linearGradient id="SVGID_00000051366246860837543160000009499544534256509107_" gradientUnits="userSpaceOnUse" x1="167.2175" y1="150.5811" x2="41.5467" y2="34.4054" gradientTransform="matrix(1 0 0 -1 0 175)">
			<stop  offset="0" style="stop-color:#78F8B1"/>
			<stop  offset="1" style="stop-color:#50EAF1"/>
		</linearGradient>
		<path style="opacity:0.8;fill:url(#SVGID_00000051366246860837543160000009499544534256509107_);enable-background:new    ;" d="
			M57.19,163.15L180.76,38.63c0,0-11.74-24.96-39.59-27.15l-83.99,84.5L57.19,163.15L57.19,163.15z"/>
	</g>
	<g class="st4">
		<path class="st5" d="M230.21,34.13c0-1.79,0.86-2.69,2.57-2.69h32.5c3.85,0,7.4,0.75,10.64,2.26c3.24,1.51,6.04,3.52,8.38,6.04
			c2.35,2.52,4.17,5.41,5.46,8.67c1.3,3.26,1.95,6.67,1.95,10.21c0,3.47-0.64,6.82-1.92,10.04c-1.28,3.22-3.07,6.08-5.38,8.58
			c-2.31,2.5-5.07,4.5-8.28,6.01c-3.21,1.51-6.72,2.26-10.54,2.26h-18.85v28.44c0,1.64-0.86,2.46-2.57,2.46h-11.46
			c-1.67,0-2.51-0.82-2.51-2.46V34.13z M275.01,58.54c0-1.57-0.31-3.11-0.92-4.62c-0.61-1.51-1.45-2.85-2.52-4.01
			c-1.07-1.17-2.35-2.11-3.84-2.84s-3.12-1.09-4.87-1.09h-16.11v25.12h16.11c1.72,0,3.32-0.34,4.82-1.03
			c1.49-0.69,2.78-1.62,3.87-2.78c1.09-1.17,1.94-2.5,2.55-4.02C274.71,61.76,275.01,60.18,275.01,58.54z"/>
		<path class="st5" d="M377.37,113.03c0,0.69-0.14,1.25-0.43,1.69s-0.66,0.78-1.12,1.03c-0.46,0.25-0.98,0.42-1.57,0.52
			c-0.59,0.09-1.21,0.14-1.86,0.14h-7.15c-1.22,0-2.07-0.32-2.55-0.97c-0.48-0.65-0.83-1.47-1.06-2.46l-0.34-4.86
			c-1.34,1.33-2.81,2.58-4.43,3.75c-1.62,1.16-3.37,2.17-5.24,3.03c-1.87,0.86-3.85,1.53-5.95,2c-2.1,0.48-4.25,0.71-6.47,0.71
			c-3.43,0-6.74-0.45-9.93-1.34c-3.19-0.9-6.17-2.16-8.95-3.78c-2.79-1.62-5.31-3.58-7.58-5.87c-2.27-2.29-4.22-4.82-5.84-7.61
			c-1.62-2.78-2.88-5.78-3.78-8.98c-0.9-3.2-1.34-6.54-1.34-10.01s0.45-6.81,1.34-10.01c0.9-3.2,2.15-6.2,3.78-8.98
			c1.62-2.78,3.57-5.31,5.84-7.58c2.27-2.27,4.8-4.21,7.58-5.84c2.78-1.62,5.77-2.88,8.95-3.78c3.18-0.9,6.49-1.34,9.93-1.34
			c2.44,0,4.77,0.26,6.98,0.77c2.21,0.51,4.28,1.24,6.21,2.17c1.93,0.94,3.71,2.06,5.35,3.38c1.64,1.32,3.13,2.76,4.46,4.32
			l0.8-6.12c0.19-0.69,0.37-1.25,0.54-1.69c0.17-0.44,0.38-0.79,0.63-1.06c0.25-0.27,0.56-0.45,0.94-0.54
			c0.38-0.09,0.86-0.14,1.43-0.14h5.72c0.61,0,1.22,0.06,1.83,0.17c0.61,0.11,1.16,0.3,1.66,0.54c0.5,0.25,0.89,0.59,1.17,1.03
			s0.43,0.98,0.43,1.63V113.03z M317.87,80.02c0,3.05,0.53,5.94,1.6,8.67c1.07,2.73,2.56,5.12,4.46,7.18
			c1.91,2.06,4.15,3.69,6.72,4.89s5.39,1.8,8.44,1.8c3.09,0,5.98-0.6,8.67-1.8s5.02-2.83,7.01-4.89c1.98-2.06,3.55-4.45,4.69-7.18
			c1.14-2.73,1.72-5.62,1.72-8.67c0-3.01-0.57-5.88-1.72-8.61c-1.14-2.73-2.71-5.12-4.69-7.18c-1.98-2.06-4.32-3.7-7.01-4.92
			s-5.58-1.83-8.67-1.83c-3.05,0-5.86,0.61-8.44,1.83s-4.82,2.86-6.72,4.92c-1.91,2.06-3.4,4.45-4.46,7.18
			C318.4,74.14,317.87,77.01,317.87,80.02z"/>
		<path class="st5" d="M418.28,137.41c-0.34,0.84-0.78,1.46-1.32,1.86s-1.24,0.6-2.12,0.6h-10.76c-1.07,0-1.8-0.18-2.2-0.54
			c-0.4-0.36-0.6-0.81-0.6-1.34c0-0.27,0.05-0.65,0.14-1.14c0.09-0.5,0.18-0.78,0.26-0.86l10.07-25.69l-25.52-62.19
			c0-0.08-0.02-0.13-0.06-0.17v-0.52c-0.19-0.42-0.29-0.9-0.29-1.43c0-0.65,0.23-1.16,0.69-1.54c0.46-0.38,1.16-0.57,2.12-0.57
			h10.36c1.64,0,2.76,0.8,3.38,2.4l1.03,2.69c0.76,2.14,1.62,4.53,2.58,7.18c0.95,2.65,1.95,5.39,2.97,8.21
			c1.03,2.82,2.07,5.66,3.12,8.5c1.05,2.84,2.04,5.51,2.98,8.01c0.93,2.5,1.78,4.75,2.55,6.75c0.76,2,1.37,3.58,1.83,4.72
			l16.94-46.06c0.34-0.84,0.78-1.46,1.32-1.86c0.53-0.4,1.24-0.6,2.12-0.6h10.76c1.07,0,1.8,0.18,2.2,0.54s0.6,0.81,0.6,1.34
			c0,0.27-0.05,0.65-0.14,1.14c-0.1,0.5-0.18,0.78-0.26,0.86L418.28,137.41z"/>
		<path class="st5" d="M468.48,44.46c0.97-0.48,2.18-0.71,3.63-0.71h5.78c1.11,0,1.93,0.36,2.46,1.09c0.53,0.73,0.9,1.53,1.09,2.41
			l0.63,5.52c0.88-1.3,1.89-2.56,3.03-3.76s2.51-2.27,4.09-3.19s3.43-1.66,5.55-2.21c2.12-0.56,4.59-0.83,7.41-0.83
			c2.67,0,5.09,0.26,7.27,0.77c2.17,0.52,4.14,1.28,5.89,2.3c1.75,1.01,3.34,2.26,4.75,3.73c1.41,1.47,2.69,3.17,3.83,5.08
			c0.92-1.8,2.15-3.45,3.72-4.94c1.56-1.49,3.37-2.76,5.41-3.82c2.04-1.05,4.28-1.87,6.72-2.44c2.44-0.57,4.98-0.86,7.61-0.86
			c4.5,0,8.46,0.82,11.87,2.46c3.41,1.64,6.26,3.89,8.55,6.75c2.29,2.86,4.01,6.2,5.18,10.01c1.16,3.81,1.75,7.9,1.75,12.24v38.16
			c0,1.37-0.33,2.41-0.97,3.12c-0.65,0.71-1.58,1.06-2.8,1.06h-8.7c-1.53,0-2.55-0.29-3.06-0.86c-0.51-0.57-0.77-1.58-0.77-3.03
			V74.11c0-2.02-0.29-3.98-0.86-5.89c-0.57-1.9-1.46-3.59-2.66-5.06c-1.2-1.47-2.71-2.65-4.52-3.54s-3.98-1.34-6.49-1.34
			c-2.1,0-4.04,0.37-5.84,1.12c-1.79,0.74-3.34,1.81-4.63,3.2c-1.3,1.39-2.32,3.07-3.06,5.03c-0.74,1.96-1.12,4.14-1.12,6.54v38.12
			c0,2.74-1.24,4.12-3.72,4.12h-8.75c-1.53,0-2.54-0.29-3.03-0.86c-0.5-0.57-0.74-1.58-0.74-3.03V74.17c0-1.98-0.28-3.92-0.83-5.8
			c-0.55-1.89-1.41-3.57-2.57-5.06c-1.16-1.49-2.66-2.69-4.49-3.6c-1.83-0.92-4.01-1.37-6.52-1.37c-1.75,0-3.51,0.33-5.26,1
			c-1.75,0.67-3.35,1.63-4.78,2.89c-1.43,1.26-2.6,2.8-3.52,4.63s-1.39,3.91-1.43,6.23v39.95c0,0.99-0.32,1.8-0.97,2.43
			c-0.65,0.63-1.47,0.94-2.46,0.94h-9.44c-1.26,0-2.18-0.29-2.78-0.89c-0.59-0.59-0.89-1.44-0.89-2.55V47.12
			C467.02,45.83,467.51,44.94,468.48,44.46z"/>
		<path class="st5" d="M662.47,113.03c0,0.69-0.14,1.25-0.43,1.69s-0.66,0.78-1.12,1.03c-0.46,0.25-0.98,0.42-1.57,0.52
			c-0.59,0.09-1.21,0.14-1.86,0.14h-7.15c-1.22,0-2.07-0.32-2.55-0.97c-0.48-0.65-0.83-1.47-1.06-2.46l-0.34-4.86
			c-1.34,1.33-2.81,2.58-4.43,3.75c-1.62,1.16-3.37,2.17-5.24,3.03c-1.87,0.86-3.85,1.53-5.95,2c-2.1,0.48-4.25,0.71-6.46,0.71
			c-3.43,0-6.74-0.45-9.93-1.34c-3.19-0.9-6.17-2.16-8.95-3.78c-2.79-1.62-5.31-3.58-7.58-5.87c-2.27-2.29-4.21-4.82-5.84-7.61
			c-1.62-2.78-2.88-5.78-3.78-8.98c-0.9-3.2-1.34-6.54-1.34-10.01s0.45-6.81,1.34-10.01c0.9-3.2,2.15-6.2,3.78-8.98
			c1.62-2.78,3.57-5.31,5.84-7.58c2.27-2.27,4.8-4.21,7.58-5.84c2.78-1.62,5.77-2.88,8.95-3.78c3.18-0.9,6.49-1.34,9.93-1.34
			c2.44,0,4.77,0.26,6.98,0.77c2.21,0.51,4.28,1.24,6.21,2.17c1.93,0.94,3.71,2.06,5.35,3.38c1.64,1.32,3.13,2.76,4.46,4.32
			l0.8-6.12c0.19-0.69,0.37-1.25,0.54-1.69c0.17-0.44,0.38-0.79,0.63-1.06c0.25-0.27,0.56-0.45,0.94-0.54
			c0.38-0.09,0.86-0.14,1.43-0.14h5.72c0.61,0,1.22,0.06,1.83,0.17c0.61,0.11,1.16,0.3,1.66,0.54c0.5,0.25,0.89,0.59,1.17,1.03
			s0.43,0.98,0.43,1.63V113.03z M602.97,80.02c0,3.05,0.53,5.94,1.6,8.67c1.07,2.73,2.55,5.12,4.46,7.18
			c1.91,2.06,4.15,3.69,6.72,4.89c2.58,1.2,5.39,1.8,8.44,1.8c3.09,0,5.98-0.6,8.67-1.8s5.03-2.83,7.01-4.89s3.55-4.45,4.69-7.18
			c1.14-2.73,1.72-5.62,1.72-8.67c0-3.01-0.57-5.88-1.72-8.61c-1.14-2.73-2.71-5.12-4.69-7.18s-4.32-3.7-7.01-4.92
			s-5.58-1.83-8.67-1.83c-3.05,0-5.86,0.61-8.44,1.83c-2.57,1.22-4.82,2.86-6.72,4.92c-1.91,2.06-3.4,4.45-4.46,7.18
			C603.5,74.14,602.97,77.01,602.97,80.02z"/>
		<path class="st5" d="M672.31,115.61c-0.57,0-0.86-0.23-0.86-0.69c0-0.19,0.09-0.48,0.29-0.86v-0.17c0-0.23,0.06-0.46,0.17-0.69
			s0.23-0.42,0.34-0.57l23.69-33.81c-2.1-3.05-4.07-5.9-5.92-8.55c-1.85-2.65-3.64-5.21-5.38-7.7c-1.74-2.48-3.45-4.93-5.15-7.35
			s-3.46-4.95-5.29-7.58c-0.31-0.42-0.55-0.84-0.74-1.26c-0.19-0.42-0.29-0.78-0.29-1.09c0-0.46,0.2-0.83,0.6-1.12
			c0.4-0.29,1.08-0.43,2.03-0.43h10.41c1.11,0,1.99,0.09,2.66,0.26c0.67,0.17,1.24,0.45,1.72,0.83c0.48,0.38,0.92,0.88,1.32,1.49
			c0.4,0.61,0.89,1.34,1.46,2.17c2.06,3.09,4.06,6.2,6.01,9.33c1.95,3.13,3.91,6.26,5.89,9.38c1.03-1.49,2.11-3.12,3.23-4.89
			c1.12-1.77,2.26-3.58,3.4-5.44c1.14-1.85,2.27-3.67,3.38-5.46s2.16-3.45,3.15-4.98c0.65-0.99,1.24-1.69,1.77-2.09
			c0.53-0.4,1.22-0.6,2.06-0.6h12.76c0.69,0,1.26,0.12,1.72,0.37c0.46,0.25,0.69,0.64,0.69,1.17c0.04,0.42-0.21,1.03-0.74,1.83
			c-1.87,2.63-3.67,5.19-5.41,7.67c-1.74,2.48-3.49,4.98-5.26,7.5c-1.77,2.52-3.6,5.11-5.46,7.78c-1.87,2.67-3.87,5.55-6.01,8.64
			c3.93,5.57,7.83,11.13,11.7,16.68c3.87,5.55,7.77,11.11,11.7,16.68c0.31,0.46,0.57,0.93,0.8,1.4c0.23,0.48,0.34,0.92,0.34,1.34
			c0,0.46-0.19,0.84-0.57,1.14c-0.38,0.31-1.05,0.46-2,0.46h-13.45c-0.84,0-1.53-0.21-2.06-0.63s-1.07-1.05-1.6-1.89l-1.49-2.35
			c-2.14-3.47-4.25-6.92-6.35-10.36c-2.1-3.43-4.2-6.88-6.29-10.36l-12.64,20.83c-0.76,1.26-1.54,2.37-2.35,3.32
			c-0.46,0.46-0.99,0.79-1.6,1c-0.61,0.21-1.26,0.34-1.95,0.4c-0.69,0.06-1.37,0.08-2.06,0.06c-0.69-0.02-1.35-0.03-2-0.03h-9.21
			C672.88,116.41,672.5,116.14,672.31,115.61z"/>
	</g>
</g>
</svg>
